<?xml version="1.0" encoding="utf-8"?>
<!-- Generator: Adobe Illustrator 15.0.0, SVG Export Plug-In . SVG Version: 6.00 Build 0)  -->
<!DOCTYPE svg PUBLIC "-//W3C//DTD SVG 1.1//EN" "http://www.w3.org/Graphics/SVG/1.1/DTD/svg11.dtd">
<svg version="1.1" id="Layer_1" xmlns="http://www.w3.org/2000/svg" xmlns:xlink="http://www.w3.org/1999/xlink" x="0px" y="0px"
	 width="1920px" height="120px" viewBox="0 0 1920 120" enable-background="new 0 0 1920 120" xml:space="preserve">
<path fill-rule="evenodd" clip-rule="evenodd" fill="#111111" d="M1920,121H0V82h355.577c-0.1-0.108-0.17-0.184-0.17-0.184
	s5.794-1.905,6.489-1.905c0.695,0,1.738-0.174,3.649-0.695s3.475-1.737,6.082-1.217c2.606,0.522,3.127,1.044,4.691,1.217
	c1.563,0.174,1.216,0.174,3.475,0.174s2.954-1.043,5.213-0.347c2.258,0.694,0.869,0.868,3.127,0.868s2.606-0.976,4.865-0.976
	s4.17,0,4.17,0h2.085l5.734-0.174l3.127-0.695l2.78-0.174l1.39-1.217l2.433,1.738l2.085,0.521l2.085-0.695
	c0,0,2.606-0.348,3.302-0.348c0.695,0,2.78-0.521,2.78-0.521l2.606-3.849l2.085,4.022h1.737l0.869-2.606l2.78,2.259l2.259,1.217
	h2.085l1.39,0.174l2.259-2.433l2.259,1.911l1.737,1.043l1.738-2.26l3.822,0.174h2.954l1.216-2.954l1.738,0.695l-0.173,1.911
	l3.822,0.521l3.301-0.174c0,0,2.259-0.348,3.127,0.174s2.78,0.869,2.78,0.869l2.954-1.043l1.738,0.174l1.737,1.564l3.301-0.521
	l2.78-1.564h2.085l3.301-1.216c0,0,0.869-1.042,2.606-0.868c0.145,0.015,1.269,1.041,2.958,2.659
	c1.122-0.366,0.264-0.393,1.721-0.922c1.911-0.695,1.39-0.174,2.954-0.695c0.348-0.116,0.619-0.175,0.85-0.204l0.327-2.431H501
	v2.435c0.345,0.063,0.568,0.2,0.928,0.2c0.291,0,0.792,0.092,1.28,0.198l0.464-4.833H504v5.019c0.311,0.077,0.534,0.138,0.534,0.138
	s1.564-0.695,3.128-1.563c1.563-0.869,1.737-0.174,1.737-0.174l3.301,0.868l2.606,2.259c0,0,1.911-0.521,2.78-0.695
	s1.995-1.401,1.995-1.401l-0.083-3.289l2.947-0.925l3.929,0.896l-0.1,1.938c0,0,0.078,0.577,0.078,1.62s1.485,0.118,2.18-0.056
	c0.695-0.174,0.869-0.174,3.475-0.695c1.851-0.37,2.042-0.038,2.492,0.31v-6.25l0.545,6.544c0.084,0.031,0.159,0.065,0.265,0.092
	c1.39,0.348,2.259,1.042,2.954,1.216c0.074,0.019,0.154,0.025,0.237,0.029v-2.976l4-0.381v2.071c0.316-0.102,0.644-0.193,1-0.288
	v-1.878l4-0.381v1.635c0.647,0.168,1.202,0.567,3.1,0.778c3.127,0.348,2.954,0.695,5.56,0.695c2.606,0,2.433-0.348,4.17-1.217
	s1.564-0.694,3.301-0.869c1.737-0.173,1.737-0.173,3.475-0.521s3.301-1.564,3.301-1.564l3.822,2.607l4.477,1.032
	c2.829-7.935,10.387-13.625,19.294-13.625c0.65,0,1.292,0.034,1.926,0.094l0.515-1.094H601v1.169
	c8.05,0.982,14.65,6.623,17.031,14.151L620,75.661l0.833,2.178c1.834-0.161,4.073-0.356,6.415-0.556l0.483-5.284H628v5.221
	c0.704-0.06,1.413-0.119,2.12-0.177l0.612-10.044H631v9.971c5.013-0.411,9.678-0.759,10.882-0.736
	c0.213,0.003,1.352-0.243,2.118-0.388v-4.847h4v2.254c0.313-0.222,0.644-0.377,1-0.428v-0.826h2v1.211
	c0.326,0.136,0.659,0.284,1,0.423v-0.634h2v1.077c1.49-0.124,2.17-3.042,6.337-3.295l0.271-1.783H661v1.76
	c4.321,0.021,5.765,1.547,8,2.433v-2.191h2v2.716c0.313,0.043,0.642,0.075,1,0.088v-1.804h2v1.869
	c0.316,0.011,0.625,0.021,0.941,0.03l1.848-3.728l7.38-0.247l0.302-1.925H685v1.896l3.19-0.107l0.281-1.789H689v1.763l3.211-0.108
	l0.259-1.654H693v1.628l0.949-0.032l3.13-3.97l1.821-0.086c0,0,4.699,7.46,5.57,7.46c0.923,0,3.696-0.672,3.696-0.672l2.13,0.505
	l0.24-4.968l2.676-2.452l0.459-3.413H714v3.613l2.165,2.387h7.387l3.356-7.043l2.826,3.861l1.715-0.727c0,0,1.627-3.792,3.55-5.289
	v-3.803l1.427-9.134L738,54.999v3.969c1.733,1.648,3,5.399,3,5.399s0,2.601,0,5.609c0,0.459,1,1.397,1,1.397v3.625
	c1.04,0,2.235,0,3.597,0c0.772,0,2.722-2.903,2.722-2.903s1.504,2.903,2.449,2.903c2.482,0,8.074,0,8.074,0l1.27,2.358l3.262-0.185
	l1.355-2.993c0,0,1.03-0.063,2.741-0.122L768,72.999v1.042c1.24-0.039,2.795-0.069,4.519-0.079L773,72.999v0.962
	c1.061-0.003,2.164,0.001,3.334,0.022L777,65.999v7.995c2.985,0.06,6.13-0.099,9.251,0.02c1.196,0.046,3.162-4.379,3.162-4.379
	l3.176,3.336c0,0,0.301,0.064,0.769,0.165L794,67.999v5.275c0.972,0.21,2.312,0.498,3.63,0.782c0.274,0.06,0.56,0.076,0.851,0.063
	l4.519-8.12c0,0,6.702,0,14.321,0c0.627,0,1.261-1.789,1.897-1.789c1.41,0,2.829-0.006,4.232-0.014L824,61.999v2.194
	c2.264-0.014,4.449-0.036,6.433-0.061L831,62.999v1.127c2.466-0.031,4.575-0.065,6-0.09V51.999h-1v-1c0,0,4.207-1.083,5-1.204
	v-1.796h-1v-1c0,0,0.388-0.503,1-1.084v-7.916h-1v-1l4-1.854v-5.146c0,0,0.128-1.35,0.292-2.091L842,25.999v-1h1
	c0,0,0.133,1.04,0.319,1.425c0.301,0.622,0.736,1.162,0.981,1.441c0.059-0.257,0.123-0.435,0.187-0.435
	c0.064,0,0.129,0.169,0.19,0.417c0.254-0.283,0.688-0.809,0.99-1.416c0.194-0.389,0.333-1.433,0.333-1.433h1v1l-2.313,1.894
	C844.86,28.63,845,29.999,845,29.999v5.004l4,1.996v1h-1v7.969c0.61,0.559,1,1.031,1,1.031v1h-1v1.739
	c0.016,0,0.029-0.001,0.045-0.001c0.409,0,4.955,1.262,4.955,1.262v1h-1v19.104c1.012,0.053,2.722,0.144,4.663,0.245l0.337-1.35
	v1.367c2.238,0.118,4.75,0.251,6.903,0.364c2.879,0.151,5.097,4.269,5.097,4.269s0.734,0.854,1.827,2.123
	c0.077,0.09,0.969-0.169,2.174-0.475v-4.648l1.703-2.188L876,72.999v4.022c0.614-0.093,1.226-0.163,1.795-0.171
	c1.693-0.021,3.026,1.365,3.026,1.365l0.102-2.649l12.655-4.76l11.587,5.022l3.114-4.958l0.72-2.879v2.316
	c0.292-0.005,0.736-0.013,1.339-0.022c1.247-2.025,3.274-3.508,5.661-4.054v-1.24v-3.583h-1v-0.417h1h1.033l1.397-5.407l1.478,5.407
	H921h1v0.417h-1v3.583v1.531c1.902,0.677,3.516,1.963,4.586,3.639c0.177,0.001,0.353,0,0.53,0.001L931,64.992h1l1-1v1h9.5l0.5-2v2
	h6.466L950,62.7v-0.708h-1l1-1.717v-8.678v-2.821v-7.521l1.744,7.521h1.041l5.687-47.406l5.725,47.406h0.975L967,41.255v7.521v2.821
	v8.395h0.067l0.933,2h-0.933l0.662,3.551c1.163-1.131,2.633-1.945,4.271-2.318v-1.232v-3.583h-1v-0.417h1h1.033l1.396-5.406
	l1.478,5.406H977h1v0.417h-1v3.583v1.517c2.685,0.95,4.784,3.136,5.613,5.877l39.328,4.159l1.765-6.652l3.876,0.145l1.857,2.295
	l3.301-0.347l1.043-1.348l3.213-9.816l2.248,4.176l2.247,0.036l0.509-2.034v2.043l1.841,0.029l0.194,2.96l3.477,0.004l0.488-2.828
	v2.828l1.947,0.002l0.679,5.94l4.374,0.239V59l6,0.006v12.539l2,0.109V59.007l6,0.006v12.97l2,0.109V59.014l6,0.006v13.4l2,0.109
	V59.021l6,0.006v13.83l2,0.109V59.027l6,0.005v14.509c0.542,0.064,1.218,0.104,2,0.096v-1.638v-2l0.5,2h4.044
	c0.642-0.41,1.529-0.915,3.045-1.578c0.146-0.063,0.28-0.115,0.411-0.163v-4.259l1.057-2.831l0.943,2.831v2h5v-1l0.333,1H1111v2.053
	c0.839-0.181,1.858-0.398,3.23-0.673c4.344-0.869,1.737,0.347,4.865,0.694c0.982,0.109,1.543,0.088,1.904-0.011v-4.063l2.711-1.573
	l2.289,1.573v4.392c0.217,0.633,0.563,1.245,1.436,1.594c0.216,0.086,0.377,0.191,0.564,0.287v-3.273l2.943-1.257l2.057,1.257v5.354
	c0.291-0.341,0.721-0.808,1.56-1.324c2.259-1.391,2.259-1.391,4.344-3.128s1.737-1.216,2.433-1.737s7.588-0.397,7.588-0.397
	l4.922-4.229l0.175-3.889l1.45-4.717l1.503,4.717l0.348,3.649l6.776,6.255c0,0,0.869-0.347,2.606-1.042s2.085-0.348,4.17-0.348
	s2.259,0.869,2.259,0.869s0.869-0.174,2.433-0.869s2.606,1.518,3.996,1.518s3.302-0.301,3.302-0.301l1.563,1.911l2.954-0.521
	l2.619,0.327v-2.098l3,0.961v1.536l2,1.086v-2.582l3,0.96v2.35c1.35,0.209,2.985,0.491,3.976,0.761
	c1.911,0.522,1.911-0.521,1.911-0.521s1.152,0.822,2.543-0.741c1.39-1.563,0.585-2.213,2.322-2.213s1.216,1.348,2.433,1.174
	c1.216-0.174,0.868-1,2.259-1.348c1.39-0.348,1.737,3.131,2.606,2.957c0.868-0.174,2.606-2.609,3.475-2.609
	c0.869,0,2.085,1.391,2.085,1.391l2.954-0.175c0,0,1.911-1.042,2.954-1.737c1.042-0.695,1.737-1.737,2.085-2.433
	c0.155-0.311,1.442,1.785,2.182,2.074c0.913,0.357,1.293-1.031,1.293-1.031l1.043,2.259h3.127l3.649,2.953l1.39,0.349
	c0,0,2.085-2.259,2.78-2.606s2.085,0.868,2.085,0.868l2.954,3.302c0,0,3.301,0.521,3.996,0.521s4.518-0.521,6.081-1.391
	c1.205-0.669,1.283-0.515,2.047-0.487L1263,59.999v14.602c0.049-0.004,0.084-0.004,0.137-0.009c1.737-0.174,2.605,0.868,2.605,0.868
	l0.521,0.192L1267,57.999v17.924l2.044,0.753h2.085l2.78,1.564l3.301,0.521l1.738-1.564l1.737-0.174l2.954,1.043
	c0,0,1.911-0.348,2.779-0.869c0.154-0.092,0.36-0.149,0.581-0.194v-2.004l0.642,1.925c0.92-0.048,1.905,0.1,1.905,0.1l3.301,0.174
	l3.823-0.521l-0.174-1.911l1.737-0.695l1.217,2.954H1301v-2.024l0.675,2.024h0.729l0.596-0.027v-1.997l0.655,1.968l2.571-0.117
	l1.738,2.26l1.737-1.043l2.259-1.911l2.259,2.433l1.39-0.174h2.085c0,0,5.729-1.587,11.375-1.895
	c5.481-0.301,10.884,0.678,10.884,0.678l2.78-2.259l0.869,2.606h1.737l2.085-11.294l2.606,11.12c0,0,2.085,0.521,2.78,0.521
	c0.694,0,3.301,0.348,3.301,0.348l2.085,0.695l2.085-0.521l0.348-1.738h2.085l1.391,1.217l2.779,0.174l1.911-0.869l1.217,1.564
	l5.733,0.174h2.086c0,0,1.91,0,4.17,0c2.258,0,2.605,0.174,4.865,0.174c2.258,0,0.868-0.174,3.127-0.869s2.954,0.348,5.213,0.348
	s1.911,0,3.475-0.174s2.085-0.695,4.691-1.217s4.17,0.695,6.081,1.217s2.954,0.695,3.649,0.695c0.301,0,6.624-1.122,13.896-1.355
	v-1.755l0.435,1.739c2.479-0.066,5.055-0.026,7.53,0.2c3.521,0.322,14.087,1.193,14.087,1.193l-0.46-0.218
	c0,0,20.745,0.844,27.578,3.086H1920V121z M625,80.244l-4.799,0.332c-0.444-0.294-0.935-0.608-1.419-0.912
	c0.083,0.596,0.136,1.198,0.167,1.81c0.905,0.106,1.792,0.211,2.656,0.313c0.387,0.045-0.317-0.487-1.313-1.149L625,80.618V80.244z
	 M631,79.829l-4,0.276v0.505l4-0.016V79.829z M637,79.414l-4,0.276v0.896l4-0.016V79.414z M643,78.998l-4,0.277v1.288l4-0.016
	V78.998z M844.441,38.458c-0.746,0-1.261,0.541-1.261,0.541l-0.021,0.825c0.695-0.092,1.574-0.187,2.273-0.187
	c0.134,0,0.23,0.019,0.346,0.027c0.023-0.402,0.042-0.666,0.042-0.666S845.195,38.458,844.441,38.458z M845.703,43.207
	c-0.015-0.591-0.009-1.205,0.004-1.781c-0.214,0.038-0.439,0.068-0.68,0.068c-0.643,0-1.339-0.108-1.905-0.224L843,45.999
	c0,0,1.014,0.36,1.802,0.36c0.708,0,1.198-0.36,1.198-0.36S845.741,44.691,845.703,43.207z M957.019,44.075h0.506l0.046-2.379
	h-0.457L957.019,44.075z M957.245,38.434h0.389l0.047-2.442h-0.339L957.245,38.434z M957.471,32.792h0.272l0.064-3.319h-0.204
	L957.471,32.792z M957.718,26.652h0.146L958,19.627L957.718,26.652z M959,19.627l0.137,7.025h0.159L959,19.627z M959.414,29.473
	h-0.223l0.064,3.319h0.298L959.414,29.473z M959.688,35.991h-0.371l0.048,2.442h0.426L959.688,35.991z M959.929,41.696h-0.5
	l0.046,2.379h0.555L959.929,41.696z M993,72.878l-3-0.249v2.251l3,0.178V72.878z M999,73.377v2.038l3,0.179v-1.965h0.039L999,73.377
	z M1010,74.29l-3-0.249v1.85l3,0.179V74.29z M1016,74.788l-2-0.166v1.686l2,0.119V74.788z M1019,75.038v1.567l0.842,0.05
	l0.606-1.497L1019,75.038z M1084,55.999v3h-1L1084,55.999z M1068,55.998v3.001h-1L1068,55.998z M844,25.999h1v1h-1V25.999z
	 M777.907,55.943c0-1.688,1.369-3.058,3.058-3.058c1.688,0,3.057,1.369,3.057,3.058s-3.057,4.824-3.057,4.824
	S777.907,57.632,777.907,55.943z M761.02,47.982c0-3.309,2.682-5.99,5.99-5.99c3.308,0,5.99,2.682,5.99,5.99
	c0,3.308-5.99,9.451-5.99,9.451S761.02,51.29,761.02,47.982z M643,62.006c0-1.125,0.912-2.036,2.037-2.036s2.037,0.911,2.037,2.036
	s-2.037,3.213-2.037,3.213S643,63.131,643,62.006z"/>
</svg>
